PathFileType	4	(X/Y/Z)	\\147.46.242.158\로컬 디스크 (e)\MOCAP Data\Iguana Capture\iguana\Project 2\Capture day 7\Session 2\Take12.trc
DataRate	CameraRate	NumFrames	NumMarkers	Units	OrigDataRate	OrigDataStartFrame	OrigNumFrames
120.0	120.0	10	23	mm	120.0	60	16798
Frame#	Time	ana:head1			ana:head2			ana:bone1			ana:bone2			ana:bone3			ana:tail1			ana:tail2			ana:tail3			ana:tail4			ana:Rforefoot1			ana:Rforefoot2			ana:Rforefoot3			ana:Lforefoot1			ana:Lforefoot2			ana:Lforefoot3			ana:RhindLeg1			ana:RhindLeg2			ana:RhindLeg3			ana:RhindLeg4			ana:LhindLeg1			ana:LhindLeg2			ana:LhindLeg3			ana:LhindLeg4			
		X1	Y1	Z1	X2	Y2	Z2	X3	Y3	Z3	X4	Y4	Z4	X5	Y5	Z5	X6	Y6	Z6	X7	Y7	Z7	X8	Y8	Z8	X9	Y9	Z9	X10	Y10	Z10	X11	Y11	Z11	X12	Y12	Z12	X13	Y13	Z13	X14	Y14	Z14	X15	Y15	Z15	X16	Y16	Z16	X17	Y17	Z17	X18	Y18	Z18	X19	Y19	Z19	X20	Y20	Z20	X21	Y21	Z21	X22	Y22	Z22	X23	Y23	Z23	

2289	19.067	316.86966	190.20869	46.95337	306.20618	189.81664	48.64637	284.82526	181.70653	40.84673	275.98300	156.16878	35.31668	272.63867	125.60818	21.61128	266.50348	96.37850	12.42455	280.22617	61.29607	8.01793	295.77328	23.06472	8.00764	301.91885	-18.61496	5.97452	297.11627	176.54298	23.72528	299.24747	160.76221	18.75388	309.55911	162.22375	4.15121	274.65860	190.11687	24.41690	265.41388	183.07278	17.61245	253.01056	182.15450	4.71674	282.58188	123.94637	16.18096	300.46698	132.21530	19.95461	312.73856	132.67235	2.39627	316.98511	141.93927	4.27228	264.93677	130.31340	15.85656	255.70421	145.16574	20.02900	242.16301	146.27631	2.93385	242.87714	157.09967	4.01223	
2290	19.075	316.99747	189.54063	47.13928	306.31372	189.35324	48.86070	284.85074	181.67368	40.95373	275.77695	155.99413	35.50897	272.53491	125.61504	21.64295	266.44797	96.34744	12.43723	280.22180	61.30255	7.96668	295.77231	23.06614	7.98177	301.90967	-18.61730	5.95888	297.18396	176.36165	23.84460	299.36331	160.58070	18.69870	309.55457	162.19365	4.11276	274.81793	190.10759	24.51103	265.53799	183.20593	17.65326	253.03534	182.31578	4.88747	282.51587	123.97520	16.21142	300.43948	132.17601	19.96317	312.77197	132.70581	2.40324	317.02402	141.97368	4.34609	265.06409	130.01958	15.83849	255.59230	145.17026	20.06653	242.14522	146.33183	2.89489	242.84886	157.29391	3.90550	
2291	19.083	317.12912	188.86839	47.33224	306.46967	188.87521	49.04725	284.88535	181.58879	41.07255	275.54312	155.78543	35.71622	272.42291	125.62448	21.66676	266.38742	96.31364	12.44529	280.20093	61.28947	7.94158	295.76346	23.03295	7.93861	301.90814	-18.62753	5.94510	297.24356	176.18013	23.97150	299.47849	160.34474	18.68378	309.53830	162.16449	4.07320	274.99487	190.09099	24.60262	265.63602	183.40105	17.70383	253.08842	182.42053	5.03503	282.44119	124.01384	16.23990	300.40451	132.12991	19.97439	312.86502	132.75723	2.53935	317.06683	142.00894	4.42687	265.13712	129.76416	15.82352	255.46938	145.15906	20.10726	242.11081	146.41629	2.86496	242.88777	157.41208	3.78918	
2292	19.092	317.29086	188.23357	47.49998	306.61398	188.30504	49.19695	284.96097	181.42694	41.20534	275.30771	155.54488	35.92237	272.32449	125.63757	21.69378	266.33130	96.27949	12.45846	280.16989	61.26650	7.94034	295.75217	22.97797	7.88509	301.90692	-18.63556	5.94917	297.30841	175.98659	24.10648	299.60919	159.96977	18.72590	309.51523	162.13022	4.03128	275.17392	190.08293	24.71243	265.72034	183.63908	17.77545	253.16357	182.45627	5.15581	282.36636	124.05534	16.26737	300.36719	132.07893	19.98956	312.95010	132.79761	2.66067	317.11230	142.05876	4.51533	265.13550	129.57857	15.83105	255.34906	145.15236	20.13903	242.07289	146.49855	2.84736	242.96716	157.42821	3.66427	
2293	19.100	317.48199	187.63066	47.63876	306.74985	187.65685	49.30108	285.08981	181.22171	41.35060	275.11731	155.31528	36.12788	272.26474	125.65375	21.72872	266.28082	96.23928	12.48340	280.13623	61.23849	7.95451	295.74527	22.94456	7.81884	301.91110	-18.64231	5.94546	297.39453	175.78084	24.23818	299.67288	159.63655	18.76543	309.48337	162.08353	3.97625	275.44025	190.00789	24.80001	265.80130	183.91992	17.91470	253.22852	182.50105	5.25516	282.29721	124.11070	16.28158	300.33649	132.02859	20.01139	313.04803	132.83723	2.81586	317.16153	142.11685	4.62305	265.04614	129.47942	15.87188	255.22200	145.12010	20.18925	242.04407	146.55614	2.84059	243.04977	157.37270	3.55422	
2294	19.108	317.70236	187.06474	47.74751	306.89584	186.99257	49.36300	285.27975	180.97447	41.50507	274.97809	155.11636	36.31786	272.13052	125.63519	21.77161	266.23956	96.19427	12.51568	280.10397	61.20280	7.98395	295.75259	22.87803	7.78095	301.91626	-18.65555	5.94160	297.51630	175.56841	24.36412	299.93442	159.37015	18.86525	309.44791	162.02400	3.90687	275.79837	189.85988	24.87770	265.90222	184.19699	18.11292	253.30093	182.55205	5.34017	282.23434	124.13889	16.32304	300.31442	131.98067	20.03661	313.07028	132.84283	2.88608	317.19882	142.15639	4.69523	264.84772	129.56937	15.92431	255.08917	145.06253	20.26027	242.03061	146.58875	2.83944	243.13701	157.25797	3.45941	
2295	19.117	317.95288	186.50478	47.82971	307.06613	186.34209	49.41131	285.49353	180.75569	41.64500	274.88297	154.96382	36.48320	271.91333	125.56835	21.83607	266.19919	96.14571	12.55195	280.08014	61.17616	7.99708	295.74625	22.88027	7.74738	301.92374	-18.66070	5.92097	297.67145	175.33450	24.46990	300.20688	159.37469	18.86649	309.41739	161.95761	3.82587	276.23694	189.66531	24.91598	266.04797	184.45985	18.35268	253.38838	182.64436	5.45214	282.17609	124.14763	16.38056	300.29620	131.93398	20.06112	313.03336	132.82300	2.87992	317.24707	142.21364	4.78037	264.59213	129.72559	16.00075	254.95363	144.99083	20.34378	242.02081	146.60504	2.83648	243.15028	157.17128	3.41008	
2296	19.125	318.22223	185.96181	47.87922	307.29169	185.79512	49.44931	285.72626	180.55905	41.77003	274.82864	154.88593	36.60673	271.63666	125.43996	21.89372	266.16373	96.09669	12.58520	280.06610	61.15791	7.99929	295.73859	22.88967	7.72650	301.92438	-18.66593	5.90069	297.84741	175.08972	24.54448	300.56659	159.60851	18.76327	309.39511	161.88751	3.74184	276.73032	189.44293	24.93575	266.25122	184.67542	18.59449	253.50298	182.78337	5.58237	282.11917	124.14024	16.46750	300.28394	131.89738	20.07729	312.93753	132.77821	2.76665	317.28000	142.24944	4.82016	264.29211	129.94818	16.09089	254.82639	144.92018	20.43305	242.03889	146.60199	2.82877	243.14647	157.14848	3.38782	
2297	19.133	318.50266	185.42570	47.90622	307.57175	185.30684	49.48310	285.93399	180.43561	41.87309	274.77054	154.87410	36.69008	271.34906	125.31753	21.99833	266.12634	96.05185	12.61013	280.04996	61.13432	8.00400	295.73117	22.88830	7.71020	301.91794	-18.67346	5.88187	298.02792	174.84056	24.59002	300.94098	159.99983	18.52243	309.33008	161.80168	3.62209	277.16934	189.31340	24.99484	266.51050	184.83603	18.80072	253.64622	182.96185	5.74771	282.06531	124.10604	16.57410	300.24533	131.87920	20.09474	312.90094	132.76869	2.71270	317.30502	142.25427	4.80143	264.04126	130.18187	16.13047	254.71053	144.84991	20.51336	242.05247	146.60094	2.81656	243.14270	157.13945	3.37304	
2298	19.142	318.79059	184.87297	47.91887	307.91367	184.87820	49.59009	286.13745	180.33864	41.95555	274.72308	154.88354	36.75440	271.12769	125.20325	22.10295	266.09131	96.01626	12.62320	280.03714	61.11794	7.99243	295.72644	22.89055	7.69571	301.89993	-18.67824	5.87835	298.20108	174.58261	24.62005	301.29202	160.32854	18.20189	309.23135	161.71806	3.49459	277.60834	189.19501	25.06731	266.81146	184.92715	18.96043	253.82101	183.16975	5.93527	282.01031	124.05879	16.69117	300.18451	131.87378	20.11759	312.89548	132.77818	2.64746	317.31589	142.22748	4.73628	263.86945	130.38817	16.12933	254.61644	144.81964	20.56872	242.07361	146.59958	2.80379	243.13251	157.14330	3.37648	
